<?xml version="1.0" standalone="no"?><!DOCTYPE svg PUBLIC "-//W3C//DTD SVG 1.1//EN" "http://www.w3.org/Graphics/SVG/1.1/DTD/svg11.dtd"><svg t="1605521816001" class="icon" viewBox="0 0 1024 1024" version="1.1" xmlns="http://www.w3.org/2000/svg" p-id="791" xmlns:xlink="http://www.w3.org/1999/xlink" width="200" height="200"><defs><style type="text/css"></style></defs><path d="M1024 512c0 431.232-80.768 512-512 512S0 943.232 0 512 80.768 0 512 0s512 80.768 512 512z" fill="#3FA9F5" p-id="792"></path><path d="M648 294.6048h-317.056a43.2384 43.2384 0 0 0-43.2384 43.2256v374.6944a43.2384 43.2384 0 0 0 43.2384 43.2384h277.504a128.9344 128.9344 0 0 1-17.4848-64.8576c0-61.4912 42.8416-112.8576 100.2624-126.208V337.8304a43.2384 43.2384 0 0 0-43.2256-43.2256z m-108.096 396.288H363.136a21.6192 21.6192 0 0 1 0-43.2256h176.768a21.6192 21.6192 0 0 1 0 43.2384z m-126.208-86.4512h-61.1328v-61.1328l163.0464-163.0592 61.1456 61.1456L413.696 604.4416z m183.424-183.424l-10.176 10.1888-61.1456-61.1456 10.1888-10.1888a43.2384 43.2384 0 1 1 61.1456 61.1456z" fill="#FFFFFF" opacity=".7" p-id="793"></path><path d="M691.2256 674.9056m-36.032 0a36.032 36.032 0 1 0 72.064 0 36.032 36.032 0 1 0-72.064 0Z" fill="#FFFFFF" p-id="794"></path><path d="M691.2256 559.2192a115.2896 115.2896 0 1 0 0 230.5792 115.2896 115.2896 0 0 0 0-230.5792z m64.8576 115.6864c0 4.6848-0.5504 9.2288-1.4976 13.6448l8.3328 8.896c2.2144 2.3424 2.624 5.888 1.0112 8.6784l-8.9728 15.5264a7.3344 7.3344 0 0 1-8.0256 3.4816l-11.8272-2.7648a65.4848 65.4848 0 0 1-24.3584 14.0416l-3.5328 11.648a7.3344 7.3344 0 0 1-7.0144 5.2096h-17.9456a7.3344 7.3344 0 0 1-7.0144-5.2096l-3.52-11.648a65.4848 65.4848 0 0 1-24.3712-14.0416l-11.8272 2.7648a7.3344 7.3344 0 0 1-8.0128-3.4816l-8.9728-15.5264a7.3344 7.3344 0 0 1 0.9984-8.6784l8.3456-8.896a64.6912 64.6912 0 0 1-1.4976-13.6448c0-4.9024 0.64-9.6384 1.6896-14.2336l-8.5376-9.088a7.3344 7.3344 0 0 1-0.9984-8.704l8.96-15.5264a7.3216 7.3216 0 0 1 8.0256-3.4688l12.5952 2.944a64.5376 64.5376 0 0 1 23.3344-13.3632l3.7888-12.5184a7.3344 7.3344 0 0 1 7.0144-5.1968h17.9456c3.2256 0 6.08 2.112 7.0144 5.1968l3.7888 12.5184c8.7424 2.8288 16.6528 7.36 23.3344 13.3632l12.5952-2.944c3.1488-0.7424 6.4 0.6656 8.0256 3.4688l8.96 15.5392a7.3344 7.3344 0 0 1-0.9984 8.6784l-8.5248 9.088c1.024 4.608 1.6896 9.344 1.6896 14.2464z" fill="#FFFFFF" p-id="795"></path></svg>