<?xml version="1.0" standalone="no"?><!DOCTYPE svg PUBLIC "-//W3C//DTD SVG 1.1//EN" "http://www.w3.org/Graphics/SVG/1.1/DTD/svg11.dtd"><svg t="1609773135980" class="icon" viewBox="0 0 1024 1024" version="1.1" xmlns="http://www.w3.org/2000/svg" p-id="5679" xmlns:xlink="http://www.w3.org/1999/xlink" width="1024" height="1024"><defs><style type="text/css"></style></defs><path d="M859.126466 0.000569H104.097552a18.716434 18.716434 0 0 0-18.659545 18.545767v29.695984h792.575559V18.546336A18.716434 18.716434 0 0 0 859.126466 0.000569zM85.438007 1005.454233A18.716434 18.716434 0 0 0 104.325107 1024h754.801359a18.716434 18.716434 0 0 0 18.8871-18.545767v-29.695984H85.438007z" p-id="5680" fill="#707070"></path><path d="M89.078893 69.404975h19.285323q7.736885 0 7.736885 7.395551v870.399517q0 7.395551-7.736885 7.395551H89.078893Q81.342009 954.595594 81.342009 947.200043V76.800526q0-7.395551 7.736884-7.395551z" p-id="5681" fill="#707070"></path><path d="M846.895361 69.404975h19.285323q7.679996 0 7.679996 7.395551v870.399517q0 7.395551-7.679996 7.395551h-19.285323q-7.679996 0-7.679995-7.395551V76.800526q0-7.395551 7.736884-7.395551z" p-id="5682" fill="#707070"></path><path d="M142.04242 928.768053v18.43199a7.45244 7.45244 0 0 0 7.509329 7.395551h663.836075a7.45244 7.45244 0 0 0 7.50933-7.395551v-18.43199a7.45244 7.45244 0 0 0-7.50933-7.395552h-56.149302q1.251555-17.635546 1.365333-35.271091v-7.907551l-0.341333-8.305773a282.168732 282.168732 0 0 0-10.695105-65.25152 343.722476 343.722476 0 0 0-24.120876-61.326188 460.0033 460.0033 0 0 0-34.133314-56.319969 587.832562 587.832562 0 0 0-40.618644-51.199971 806.968441 806.968441 0 0 0-94.776837-90.168839q-12.686215-10.296883-25.88443-20.081767l-13.141326-9.671105-6.655996-4.721775c-2.047999-1.47911-4.039109-2.559999-6.371552-3.925332a71.907516 71.907516 0 0 0 6.371552-3.868442l6.712885-4.721775q6.655996-4.778664 13.141326-9.614217 13.141326-9.727995 25.941319-20.024878 25.543097-20.479989 49.322639-43.007976t45.511086-47.047085a578.161457 578.161457 0 0 0 40.618644-51.484416 457.784635 457.784635 0 0 0 33.678204-56.376857c2.559999-4.835553 4.778664-9.898661 7.054218-14.904881 1.137777-2.50311 2.332443-4.949331 3.356443-7.509329l3.071998-7.679996c0.967111-2.559999 2.104888-5.063108 2.958221-7.679995l2.673776-7.793774c0.853333-2.616887 1.877332-5.176886 2.616887-7.850662l2.275555-7.96444a282.168732 282.168732 0 0 0 10.467549-65.194631l0.341333-8.305773V128.000498c0-5.688886 0-10.922661-0.398222-16.327102 0-2.958221 0-5.688886-0.45511-8.760884h55.921746a7.45244 7.45244 0 0 0 7.509329-7.395552v-18.431989a7.45244 7.45244 0 0 0-7.509329-7.395552H149.551749a7.45244 7.45244 0 0 0-7.509329 7.395552v18.431989a7.45244 7.45244 0 0 0 7.509329 7.395552h60.017744c0 2.958221 0 5.688886-0.341333 8.93155 0 5.404441 0 10.808883-0.284444 16.213325v8.021329l0.341333 8.191995a283.989176 283.989176 0 0 0 10.353772 64.284409 349.46825 349.46825 0 0 0 23.324431 60.871077 473.656626 473.656626 0 0 0 32.767982 56.376858 626.630763 626.630763 0 0 0 39.480867 51.996415 828.41554 828.41554 0 0 0 92.387504 92.501282q22.186654 19.171545 45.511086 36.86398-24.007098 17.066657-46.76264 35.83998-25.486208 20.764433-49.151973 43.463087t-45.511086 47.559084a571.050349 571.050349 0 0 0-40.447977 51.939527 399.302889 399.302889 0 0 0-57.400857 118.442601 283.078954 283.078954 0 0 0-10.410661 65.308408v16.668435q0 8.248884 0.398222 16.383991c0 6.314663 0.625777 12.572437 1.080888 18.887101h-55.182192a7.45244 7.45244 0 0 0-7.509329 7.281773z m80.383955-27.022207q-0.341333-7.907551-0.568889-15.871991V870.400085a266.581185 266.581185 0 0 1 9.102218-61.667521 386.84423 386.84423 0 0 1 53.703081-114.175937 668.045851 668.045851 0 0 1 82.090621-98.702167q22.755543-22.755543 47.331529-44.088864t50.631083-40.561756l5.688886-4.152886-5.688886-3.98222a845.82353 845.82353 0 0 1-100.181278-82.431954q-23.438209-22.471099-44.600864-46.990196a549.261917 549.261917 0 0 1-39.480867-51.199972 439.352645 439.352645 0 0 1-32.597315-55.523525 344.00692 344.00692 0 0 1-22.755543-59.903966 266.86563 266.86563 0 0 1-9.215995-62.975965v-15.928881c0-5.347553 0.341333-10.695105 0.625778-16.042657q0-4.607997 0.625777-9.215995h523.832598c0 3.128887 0.398222 6.314663 0.568889 9.44355 0 5.290664 0.455111 10.581327 0.568888 15.871991v15.758214a267.377629 267.377629 0 0 1-9.045328 62.065743l-2.047999 7.623107c-0.682666 2.50311-1.592888 5.006219-2.389332 7.509329l-2.446221 7.509329c-0.796444 2.50311-1.877332 4.949331-2.730665 7.395552l-2.787554 7.395551c-0.910222 2.446221-2.047999 4.892442-3.071998 7.395552-2.104888 4.892442-4.095998 9.727995-6.48533 14.506658a449.421973 449.421973 0 0 1-31.516427 55.523525 600.689444 600.689444 0 0 1-38.399979 51.655082 826.822652 826.822652 0 0 1-90.623949 92.558171c-8.078218 7.224885-16.44088 14.165325-24.803542 21.105766q-6.257774 5.176886-12.629326 10.239995l-6.428441 5.006219a140.799922 140.799922 0 0 0-6.883552 5.688886c2.104888 1.820443 4.551109 3.98222 6.883552 5.688885l6.428441 5.00622c4.266664 3.356443 8.47644 6.769774 12.686215 10.239994 8.362662 6.940441 16.725324 13.823992 24.86043 21.048877q24.462209 21.447099 47.274641 44.543976a665.59963 665.59963 0 0 1 81.749288 99.612389 394.467336 394.467336 0 0 1 53.24797 115.029269 267.377629 267.377629 0 0 1 8.874662 62.008855v15.758213q0 7.96444-0.625777 15.871991-0.512 9.841772-1.365333 19.626656h-19.740434c0.568889-9.614217 1.137777-20.707544 1.137778-28.444429 17.066657-176.810568-225.166097-236.031869-233.926982-238.079867a3.640887 3.640887 0 0 0 1.365333-2.730665 3.754665 3.754665 0 1 0-4.892442 3.527109c-29.752872 6.997329-255.544747 65.763519-242.175865 237.397201l0.341333 28.444429h-18.43199l-1.023999-19.9111z" p-id="5683" fill="#707070"></path><path d="M477.5729 508.530064a10.922661 10.922661 0 1 0 15.41688 0 10.239994 10.239994 0 0 0-1.649777-1.365332 388.266451 388.266451 0 0 0 117.759935-121.0026l-255.658525-1.934221a391.79356 391.79356 0 0 0 125.496819 123.164376 10.069328 10.069328 0 0 0-1.365332 1.137777z" p-id="5684" fill="#707070"></path><path d="M464.204018 558.364703a7.736885 7.736885 0 1 0 7.736885-7.679996 7.736885 7.736885 0 0 0-7.623107 7.679996z" p-id="5685" fill="#707070"></path><path d="M490.657337 576.910471a7.736885 7.736885 0 1 0 7.736885-7.736885 7.736885 7.736885 0 0 0-7.679996 7.736885z" p-id="5686" fill="#707070"></path><path d="M479.393343 610.247341a9.614217 9.614217 0 1 0 9.614217-9.614217 9.614217 9.614217 0 0 0-9.671106 9.614217z" p-id="5687" fill="#707070"></path></svg>