<?xml version="1.0" standalone="no"?><!DOCTYPE svg PUBLIC "-//W3C//DTD SVG 1.1//EN" "http://www.w3.org/Graphics/SVG/1.1/DTD/svg11.dtd"><svg t="1607696511011" class="icon" viewBox="0 0 1024 1024" version="1.1" xmlns="http://www.w3.org/2000/svg" p-id="7207" xmlns:xlink="http://www.w3.org/1999/xlink" width="1024" height="1024"><defs><style type="text/css"></style></defs><path d="M512 0C230.4 0 0 230.4 0 512s230.4 512 512 512 512-230.4 512-512S793.6 0 512 0z" fill="#D5E9FF" p-id="7208" data-spm-anchor-id="a313x.7781069.0.i2" class="selected"></path><path d="M789.333333 635.733333c0 153.6-123.733333 217.6-277.333333 217.6s-277.333333-64-277.333333-217.6C234.666667 482.133333 358.4 298.666667 512 298.666667s277.333333 183.466667 277.333333 337.066666z" fill="#FFFFFF" p-id="7209"></path><path d="M652.8 213.333333c-42.666667-68.266667-85.333333-21.333333-93.866667-8.533333 4.266667-17.066667 8.533333-76.8-51.2-76.8-55.466667 0-46.933333 55.466667-42.666666 72.533333-12.8-12.8-51.2-55.466667-93.866667 12.8-46.933333 81.066667 93.866667 200.533333 93.866667 200.533334 8.533333 4.266667 12.8 8.533333 21.333333 8.533333 8.533333 4.266667 17.066667 4.266667 29.866667 4.266667 17.066667 0 29.866667-8.533333 38.4-12.8l4.266666-4.266667s140.8-119.466667 93.866667-196.266667z" fill="#A8D0FF" p-id="7210"></path><path d="M576 618.666667c0 34.133333 29.866667 64 64 64s64-29.866667 64-64S674.133333 554.666667 640 554.666667s-64 29.866667-64 64zM320 618.666667c0 34.133333 29.866667 64 64 64s64-29.866667 64-64S418.133333 554.666667 384 554.666667s-64 29.866667-64 64z" fill="#E5E5E5" p-id="7211"></path><path d="M533.333333 618.666667c-8.533333-21.333333-34.133333-21.333333-42.666666-4.266667l-4.266667 25.6c-4.266667 12.8-8.533333 38.4-42.666667 64-38.4 29.866667-93.866667 29.866667-123.733333-8.533333-17.066667-25.6-21.333333-72.533333-21.333333-106.666667s4.266667-29.866667 38.4-34.133333 106.666667 4.266667 132.266666 12.8c4.266667 0 8.533333 4.266667 8.533334 4.266666 42.666667 4.266667 59.733333 0 64 0 4.266667 0 4.266667-4.266667 8.533333-4.266666 29.866667-8.533333 98.133333-17.066667 136.533333-12.8s38.4 0 38.4 34.133333-4.266667 81.066667-21.333333 106.666667c-29.866667 38.4-85.333333 38.4-119.466667 8.533333-38.4-25.6-42.666667-51.2-46.933333-64l-4.266667-21.333333z" fill="#A8D0FF" p-id="7212"></path></svg>